<svg width="55" height="55" viewBox="0 0 55 55" fill="none" xmlns="http://www.w3.org/2000/svg">
<path d="M41.8906 0C43.1738 0.43724 43.7038 1.35074 43.615 2.68129C43.58 3.19522 43.6096 3.71318 43.6096 4.29707C44.5149 4.29707 45.3852 4.29437 46.2541 4.29707C48.9067 4.30648 51.1328 5.28187 52.8855 7.27972C54.2077 8.78517 54.9475 10.5597 54.9704 12.5589C55.0161 16.747 54.9986 20.9351 54.9852 25.1232C54.9812 26.3595 54.0288 27.2811 52.8424 27.2798C51.6359 27.2784 50.7051 26.3407 50.701 25.064C50.6889 21.0898 50.6983 17.117 50.6957 13.1428C50.6943 11.3023 49.9397 9.88298 48.2664 9.05424C47.7835 8.81477 47.2159 8.66678 46.6778 8.63046C45.6824 8.56453 44.6803 8.61162 43.6083 8.61162C43.6083 9.25874 43.6123 9.89643 43.6069 10.5328C43.5975 11.9293 42.7017 12.8979 41.4373 12.8845C40.1931 12.871 39.3228 11.9131 39.3134 10.5409C39.3093 9.91661 39.312 9.29237 39.312 8.62911C36.0569 8.62911 32.83 8.62911 29.5385 8.62911C29.5385 9.2695 29.5425 9.9072 29.5372 10.5449C29.5277 11.9145 28.6521 12.8737 27.4079 12.8831C26.1435 12.8939 25.2516 11.9266 25.2422 10.5274C25.2382 9.90451 25.2422 9.28026 25.2422 8.62373C22.014 8.62373 18.8221 8.62373 15.5763 8.62373C15.5763 9.27757 15.5803 9.91661 15.575 10.557C15.5642 11.9212 14.6791 12.8804 13.4336 12.8831C12.1866 12.8872 11.2935 11.9279 11.28 10.5691C11.2747 9.92872 11.2787 9.28833 11.2787 8.53763C10.0224 8.59682 8.79026 8.52148 7.61329 8.74212C5.64137 9.11075 4.34469 10.8584 4.30165 12.9437C4.28147 13.9096 4.29761 14.8769 4.29761 15.8429C4.29761 25.9196 4.29895 35.9977 4.29626 46.0744C4.29626 47.9337 5.00513 49.4095 6.71611 50.2154C7.38462 50.5302 8.19303 50.6728 8.93957 50.6782C14.2191 50.7159 19.4973 50.7024 24.7768 50.6943C25.4924 50.693 26.1313 50.8638 26.6116 51.4128C27.1765 52.0585 27.3312 52.8092 27.0205 53.6138C26.7097 54.4156 26.0923 54.8622 25.2422 54.9779C25.101 54.9968 24.9571 54.9941 24.8131 54.9941C19.426 54.9954 14.0402 55.0089 8.65306 54.9901C4.8787 54.9766 1.70425 52.707 0.469442 49.1687C0.266331 48.5848 0.154687 47.9686 0 47.3673C0 35.551 0 23.7348 0 11.9185C0.0349727 11.8216 0.0860867 11.7261 0.102228 11.6252C0.525936 9.00177 1.87508 6.98912 4.11199 5.56977C5.70862 4.55672 7.47475 4.22845 9.33772 4.28765C9.97395 4.30783 10.6102 4.29034 11.2774 4.29034C11.2774 3.70242 11.3056 3.18446 11.272 2.67053C11.1872 1.34805 11.7199 0.43724 13.0004 0C13.2869 0 13.5735 0 13.86 0C15.1405 0.43724 15.6732 1.3467 15.5844 2.67591C15.5494 3.20329 15.579 3.73336 15.579 4.2594C18.8368 4.2594 22.0247 4.2594 25.2449 4.2594C25.2449 3.70645 25.2732 3.18849 25.2395 2.67591C25.1508 1.3467 25.6834 0.43724 26.964 0C27.2505 0 27.537 0 27.8235 0C29.104 0.43724 29.6367 1.3467 29.5479 2.67591C29.5129 3.20329 29.5425 3.73336 29.5425 4.2594C32.8367 4.2594 36.0609 4.2594 39.3161 4.2594C39.3161 3.7078 39.3443 3.18984 39.3107 2.67591C39.2179 1.3467 39.7519 0.43724 41.0311 0C41.3176 0 41.6041 0 41.8906 0Z" fill="#989898"/>
<path d="M42.0184 54.9968C34.8907 55.017 29.0395 49.1889 29.0045 42.0343C28.9709 34.8918 34.8517 28.9978 42.005 29.0045C49.1448 29.0112 54.9852 34.8528 54.992 41.9939C54.9987 49.1297 49.165 54.9766 42.0184 54.9968ZM42.0346 33.3016C37.2514 33.2787 33.3156 37.1883 33.3008 41.9791C33.286 46.7444 37.1626 50.6594 41.9364 50.6997C46.7182 50.7401 50.6648 46.8439 50.697 42.0504C50.728 37.2663 46.8245 33.3245 42.0346 33.3016Z" fill="#989898"/>
<path d="M15.5748 22.536C15.5869 23.7172 14.6211 24.698 13.4401 24.7034C12.2591 24.7087 11.2839 23.7361 11.2866 22.5548C11.2893 21.3951 12.2349 20.4346 13.3944 20.4144C14.5741 20.3942 15.5614 21.3548 15.5748 22.536Z" fill="#989898"/>
<path d="M22.8036 20.413C23.9846 20.4292 24.9424 21.4194 24.9181 22.6006C24.8953 23.7805 23.8986 24.733 22.7176 24.702C21.5581 24.6711 20.6205 23.7024 20.63 22.5427C20.638 21.3615 21.6226 20.3969 22.8036 20.413Z" fill="#989898"/>
<path d="M32.1357 20.4131C33.3167 20.4225 34.2785 21.4087 34.2623 22.5885C34.2448 23.7684 33.2535 24.7263 32.0738 24.7021C30.9144 24.6779 29.9714 23.7133 29.9741 22.5536C29.9755 21.3723 30.9547 20.4037 32.1357 20.4131Z" fill="#989898"/>
<path d="M41.4575 24.7021C40.2765 24.6994 39.308 23.7213 39.3175 22.5401C39.3269 21.3589 40.3115 20.3956 41.4925 20.4131C42.652 20.4292 43.6003 21.3871 43.6056 22.5482C43.611 23.7294 42.6385 24.7048 41.4575 24.7021Z" fill="#989898"/>
<path d="M15.575 31.9024C15.575 33.0836 14.5998 34.0549 13.4188 34.0482C12.2377 34.0415 11.2733 33.058 11.2868 31.8781C11.3002 30.7184 12.2566 29.7673 13.4161 29.7592C14.5971 29.7511 15.5736 30.7211 15.575 31.9024Z" fill="#989898"/>
<path d="M22.7592 34.0483C21.5782 34.0402 20.6138 33.0567 20.6286 31.8769C20.6434 30.6956 21.6334 29.7377 22.813 29.7593C23.9725 29.7808 24.9168 30.7441 24.9168 31.9038C24.9181 33.085 23.9402 34.055 22.7592 34.0483Z" fill="#989898"/>
<path d="M15.575 41.2459C15.5763 42.4271 14.6011 43.3984 13.4201 43.3931C12.2391 43.3877 11.2733 42.4056 11.2868 41.2244C11.3002 40.0647 12.2552 39.1121 13.4147 39.1041C14.5944 39.0947 15.5723 40.0647 15.575 41.2459Z" fill="#989898"/>
<path d="M24.9181 41.2673C24.9073 42.4486 23.9227 43.4105 22.7417 43.393C21.5607 43.3755 20.6043 42.384 20.6299 41.2028C20.6541 40.0431 21.6199 39.1 22.7794 39.104C23.9604 39.1067 24.9289 40.0861 24.9181 41.2673Z" fill="#989898"/>
<path d="M44.1411 39.8562C44.5231 39.8562 44.8405 39.8441 45.158 39.8589C46.3538 39.9127 47.2577 40.841 47.2577 42.0034C47.2564 43.1658 46.3524 44.1089 45.1553 44.1412C44.0833 44.1694 43.0099 44.1708 41.9392 44.1398C40.7649 44.1048 39.8838 43.2182 39.861 42.0384C39.8327 40.537 39.83 39.0355 39.8637 37.5341C39.8906 36.3408 40.8577 35.4421 42.0199 35.4529C43.1619 35.4636 44.0886 36.3516 44.1371 37.5207C44.1653 38.2687 44.1411 39.0194 44.1411 39.8562Z" fill="#989898"/>
</svg>
