<svg width="19" height="19" viewBox="0 0 19 19" fill="none" xmlns="http://www.w3.org/2000/svg">
<path d="M19 16.952C19.0001 17.221 18.9472 17.4873 18.8444 17.7358C18.7415 17.9843 18.5907 18.2101 18.4006 18.4003C18.2105 18.5905 17.9847 18.7414 17.7363 18.8443C17.4878 18.9472 17.2215 19.0001 16.9526 19H2.04742C1.77852 19 1.51226 18.947 1.26384 18.8441C1.01541 18.7412 0.789695 18.5903 0.59957 18.4001C0.409446 18.21 0.25864 17.9842 0.155765 17.7357C0.0528903 17.4873 -3.89658e-05 17.221 2.15227e-08 16.952V2.04797C0.000157358 1.50492 0.215908 0.984142 0.599831 0.600116C0.983754 0.216089 1.50443 0.00023611 2.04742 2.1541e-08H16.9496C17.2185 -3.89893e-05 17.4848 0.0529089 17.7332 0.155819C17.9817 0.258729 18.2074 0.409585 18.3976 0.599768C18.5877 0.789951 18.7385 1.01574 18.8413 1.26422C18.9442 1.51271 18.9971 1.77903 18.997 2.04797V16.952" fill="#28DB3A"/>
<path d="M16.0434 4.21114C15.905 4.09287 15.7447 4.00301 15.5717 3.94671C15.3986 3.8904 15.2161 3.86874 15.0347 3.88296C14.8532 3.89719 14.6764 3.94702 14.5142 4.02962C14.352 4.11221 14.2077 4.22595 14.0895 4.36434L8.12264 11.3458L4.91213 8.66484C4.65426 8.44965 4.32155 8.34561 3.98704 8.37556C3.65253 8.40551 3.34358 8.567 3.12803 8.82457C3.02153 8.95203 2.9412 9.09923 2.89162 9.25776C2.84204 9.41629 2.82419 9.58304 2.83907 9.74847C2.85396 9.91391 2.9013 10.0748 2.97839 10.2219C3.05547 10.369 3.16079 10.4995 3.28833 10.6059L7.59037 14.1983C7.72312 14.309 7.87724 14.3912 8.04313 14.4396C8.20902 14.4881 8.38312 14.5019 8.55456 14.4801C8.73629 14.4661 8.91346 14.4164 9.07592 14.3337C9.23837 14.2511 9.38291 14.1372 9.50124 13.9985L16.1965 6.1644C16.4353 5.88498 16.5533 5.52216 16.5245 5.15575C16.4958 4.78933 16.3227 4.44934 16.0434 4.21054" fill="#F4F4F4"/>
</svg>
