<svg width="20" height="19" viewBox="0 0 20 19" fill="none" xmlns="http://www.w3.org/2000/svg">
<path d="M19.0024 16.952C19.0025 17.221 18.9496 17.4873 18.8468 17.7358C18.7439 17.9843 18.5931 18.2101 18.4029 18.4003C18.2127 18.5905 17.987 18.7414 17.7385 18.8443C17.49 18.9472 17.2237 19.0001 16.9547 19H2.04768C1.77875 19 1.51245 18.947 1.264 18.8441C1.01554 18.7412 0.789793 18.5903 0.599645 18.4001C0.409497 18.21 0.258673 17.9842 0.155785 17.7357C0.0528969 17.4873 -3.89707e-05 17.221 2.15254e-08 16.952V2.04797C0.000157378 1.50492 0.215935 0.984142 0.599906 0.600116C0.983877 0.216089 1.50462 0.00023611 2.04768 2.1541e-08H16.9517C17.2207 -3.89893e-05 17.487 0.0529089 17.7355 0.155819C17.9839 0.258729 18.2097 0.409585 18.3998 0.599768C18.59 0.789951 18.7408 1.01574 18.8437 1.26422C18.9466 1.51271 18.9995 1.77903 18.9994 2.04797V16.952" fill="#28DB3A"/>
<path d="M16.0453 4.21117C15.907 4.0929 15.7467 4.00304 15.5736 3.94674C15.4005 3.89043 15.218 3.86877 15.0365 3.88299C14.8551 3.89722 14.6782 3.94705 14.516 4.02965C14.3538 4.11224 14.2094 4.22598 14.0912 4.36437L8.12362 11.3458L4.91271 8.66487C4.65481 8.44968 4.32205 8.34564 3.9875 8.37559C3.65296 8.40554 3.34397 8.56703 3.12838 8.8246C3.02188 8.95206 2.94154 9.09926 2.89195 9.25779C2.84236 9.41632 2.8245 9.58307 2.83939 9.7485C2.85428 9.91394 2.90163 10.0748 2.97872 10.2219C3.05582 10.3691 3.16115 10.4996 3.28871 10.606L7.59129 14.1984C7.72405 14.309 7.87819 14.3912 8.0441 14.4397C8.21001 14.4881 8.38413 14.5019 8.5556 14.4801C8.73735 14.4661 8.91454 14.4164 9.07702 14.3338C9.23949 14.2511 9.38405 14.1372 9.50239 13.9986L16.1985 6.16443C16.4373 5.88501 16.5553 5.52219 16.5266 5.15578C16.4978 4.78936 16.3247 4.44937 16.0453 4.21058" fill="#F4F4F4"/>
</svg>
