<svg width="232" height="41" viewBox="0 0 232 41" fill="none" xmlns="http://www.w3.org/2000/svg">
<path d="M229.034 19.7932C229.034 11.9891 222.701 5.65527 214.896 5.65527C207.092 5.65527 200.758 11.9891 200.758 19.7932C200.758 26.636 205.622 32.3335 212.069 33.6484V24.0346H209.241V19.7932H212.069V16.2587C212.069 13.5301 214.288 11.3104 217.017 11.3104H220.552V15.5518H217.724C216.946 15.5518 216.31 16.188 216.31 16.9656V19.7932H220.552V24.0346H216.31V33.8604C223.45 33.1535 229.034 27.1308 229.034 19.7932Z" fill="#222222"/>
<path fill-rule="evenodd" clip-rule="evenodd" d="M144.214 24.9895V15.3886L153.444 20.2061L144.214 24.9895ZM164.483 13.7264C164.483 13.7264 164.15 11.3706 163.125 10.3337C161.827 8.97383 160.369 8.967 159.701 8.88671C154.922 8.54163 147.748 8.54163 147.748 8.54163H147.735C147.735 8.54163 140.563 8.54163 135.781 8.88671C135.113 8.967 133.658 8.97213 132.358 10.3337C131.333 11.3706 131 13.7264 131 13.7264C131 13.7264 130.658 16.4905 130.658 19.2563V21.8478C130.658 24.6119 131 27.3777 131 27.3777C131 27.3777 131.333 29.7318 132.358 30.7687C133.656 32.1303 135.365 32.0859 136.125 32.2294C138.858 32.4907 147.741 32.571 147.741 32.571C147.741 32.571 154.922 32.5608 159.701 32.2157C160.369 32.1354 161.827 32.1303 163.125 30.7687C164.15 29.7318 164.483 27.3777 164.483 27.3777C164.483 27.3777 164.825 24.6119 164.825 21.8478V19.2563C164.825 16.4905 164.483 13.7264 164.483 13.7264Z" fill="#222222"/>
<path d="M74.6484 5.65527H86.5242C91.0484 5.65527 94.7242 9.33114 94.7242 13.8553V25.7311C94.7242 27.9059 93.8603 29.9916 92.3225 31.5294C90.7847 33.0672 88.699 33.9311 86.5242 33.9311H74.6484C70.1242 33.9311 66.4484 30.2553 66.4484 25.7311V13.8553C66.4484 11.6805 67.3123 9.5948 68.8501 8.057C70.3879 6.5192 72.4736 5.65527 74.6484 5.65527ZM74.3656 8.48286C73.0157 8.48286 71.7212 9.01909 70.7667 9.97359C69.8122 10.9281 69.276 12.2227 69.276 13.5725V26.0139C69.276 28.8273 71.5522 31.1035 74.3656 31.1035H86.807C88.1568 31.1035 89.4514 30.5673 90.4059 29.6128C91.3604 28.6583 91.8966 27.3638 91.8966 26.0139V13.5725C91.8966 10.7591 89.6204 8.48286 86.807 8.48286H74.3656ZM88.0087 10.6035C88.4774 10.6035 88.9269 10.7897 89.2583 11.1212C89.5898 11.4526 89.7759 11.9021 89.7759 12.3708C89.7759 12.8395 89.5898 13.289 89.2583 13.6204C88.9269 13.9518 88.4774 14.138 88.0087 14.138C87.54 14.138 87.0905 13.9518 86.7591 13.6204C86.4277 13.289 86.2415 12.8395 86.2415 12.3708C86.2415 11.9021 86.4277 11.4526 86.7591 11.1212C87.0905 10.7897 87.54 10.6035 88.0087 10.6035ZM80.5863 12.7242C82.4611 12.7242 84.2591 13.469 85.5848 14.7947C86.9105 16.1204 87.6553 17.9184 87.6553 19.7932C87.6553 21.668 86.9105 23.466 85.5848 24.7917C84.2591 26.1174 82.4611 26.8622 80.5863 26.8622C78.7115 26.8622 76.9135 26.1174 75.5878 24.7917C74.2621 23.466 73.5173 21.668 73.5173 19.7932C73.5173 17.9184 74.2621 16.1204 75.5878 14.7947C76.9135 13.469 78.7115 12.7242 80.5863 12.7242ZM80.5863 15.5518C79.4614 15.5518 78.3826 15.9987 77.5872 16.7941C76.7918 17.5895 76.3449 18.6683 76.3449 19.7932C76.3449 20.9181 76.7918 21.9969 77.5872 22.7923C78.3826 23.5877 79.4614 24.0346 80.5863 24.0346C81.7112 24.0346 82.79 23.5877 83.5854 22.7923C84.3808 21.9969 84.8277 20.9181 84.8277 19.7932C84.8277 18.6683 84.3808 17.5895 83.5854 16.7941C82.79 15.9987 81.7112 15.5518 80.5863 15.5518Z" fill="#222222"/>
<path d="M31.7539 11.3104C30.6652 11.8052 29.4918 12.1304 28.2759 12.2859C29.5201 11.5366 30.4814 10.349 30.9339 8.92106C29.7604 9.62796 28.4597 10.1228 27.0883 10.4055C25.9714 9.18968 24.4021 8.48279 22.6208 8.48279C19.2983 8.48279 16.5839 11.1973 16.5839 14.548C16.5839 15.0286 16.6404 15.4952 16.7394 15.9335C11.7063 15.679 7.22455 13.2614 4.24145 9.59968C3.71834 10.4904 3.42145 11.5366 3.42145 12.6393C3.42145 14.7459 4.48179 16.6121 6.12179 17.6724C5.118 17.6724 4.18489 17.3897 3.36489 16.9655V17.008C3.36489 19.9486 5.45731 22.4086 8.22834 22.96C7.33868 23.2035 6.40468 23.2374 5.49972 23.059C5.88372 24.2642 6.63576 25.3188 7.65012 26.0745C8.66449 26.8302 9.89018 27.249 11.1549 27.2721C9.01106 28.9693 6.35365 29.8866 3.61938 29.8735C3.13869 29.8735 2.658 29.8452 2.17731 29.7886C4.86351 31.5135 8.05869 32.5173 11.4801 32.5173C22.6208 32.5173 28.7425 23.2711 28.7425 15.2549C28.7425 14.9862 28.7425 14.7318 28.7283 14.4631C29.9159 13.6149 30.9339 12.5404 31.7539 11.3104Z" fill="#222222"/>
<rect x="48.069" y="5.65515" width="1.41379" height="26.8621" fill="#222222"/>
<rect x="114.517" y="5.65515" width="1.41379" height="26.8621" fill="#222222"/>
<rect x="180.966" y="5.65515" width="1.41379" height="26.8621" fill="#222222"/>
</svg>
