<svg width="68" height="1368" viewBox="0 0 68 1368" fill="none" xmlns="http://www.w3.org/2000/svg">
<path d="M59.5512 1347.16L55.5785 1343.75C55.7666 1342.6 55.8636 1341.42 55.8636 1340.24C55.8636 1339.06 55.7666 1337.88 55.5785 1336.73L59.5512 1333.32C59.8508 1333.06 60.0653 1332.72 60.166 1332.34C60.2668 1331.96 60.2491 1331.55 60.1152 1331.18L60.0606 1331.02C58.967 1327.96 57.3293 1325.12 55.2268 1322.64L55.1176 1322.51C54.8625 1322.21 54.5226 1321.99 54.1426 1321.89C53.7625 1321.79 53.3603 1321.8 52.9888 1321.93L48.0578 1323.69C46.2383 1322.2 44.2065 1321.02 42.0109 1320.19L41.0587 1315.02C40.9869 1314.63 40.7987 1314.27 40.5192 1314C40.2397 1313.72 39.8821 1313.53 39.4939 1313.46L39.3302 1313.43C36.1703 1312.86 32.8466 1312.86 29.6867 1313.43L29.5229 1313.46C29.1347 1313.53 28.7771 1313.72 28.4976 1314C28.2181 1314.27 28.03 1314.63 27.9581 1315.02L26.9998 1320.21C24.8218 1321.04 22.7935 1322.22 20.9954 1323.7L16.0281 1321.93C15.6567 1321.8 15.2541 1321.79 14.8739 1321.89C14.4936 1321.99 14.1537 1322.21 13.8993 1322.51L13.7901 1322.64C11.69 1325.12 10.0526 1327.96 8.95621 1331.02L8.90163 1331.18C8.6287 1331.94 8.85311 1332.79 9.46568 1333.32L13.4868 1336.76C13.2988 1337.91 13.2078 1339.07 13.2078 1340.23C13.2078 1341.4 13.2988 1342.57 13.4868 1343.71L9.46568 1347.15C9.16604 1347.4 8.95158 1347.75 8.85082 1348.13C8.75007 1348.51 8.76779 1348.91 8.90163 1349.29L8.95621 1349.44C10.054 1352.51 11.6794 1355.34 13.7901 1357.83L13.8993 1357.96C14.1543 1358.26 14.4943 1358.47 14.8743 1358.58C15.2543 1358.68 15.6566 1358.66 16.0281 1358.53L20.9954 1356.76C22.8028 1358.25 24.8225 1359.43 26.9998 1360.25L27.9581 1365.45C28.03 1365.84 28.2181 1366.19 28.4976 1366.47C28.7771 1366.75 29.1347 1366.94 29.5229 1367.01L29.6867 1367.04C32.8756 1367.61 36.1412 1367.61 39.3302 1367.04L39.4939 1367.01C39.8821 1366.94 40.2397 1366.75 40.5192 1366.47C40.7987 1366.19 40.9869 1365.84 41.0587 1365.45L42.0109 1360.28C44.2056 1359.45 46.2489 1358.27 48.0578 1356.78L52.9888 1358.53C53.3601 1358.67 53.7627 1358.68 54.143 1358.58C54.5232 1358.47 54.8632 1358.26 55.1176 1357.96L55.2268 1357.83C57.3374 1355.33 58.9629 1352.51 60.0606 1349.44L60.1152 1349.29C60.3882 1348.54 60.1638 1347.69 59.5512 1347.16ZM51.2723 1337.44C51.424 1338.36 51.5028 1339.3 51.5028 1340.25C51.5028 1341.19 51.424 1342.13 51.2723 1343.05L50.872 1345.49L55.4027 1349.37C54.7158 1350.96 53.8489 1352.46 52.8189 1353.85L47.1905 1351.85L45.2861 1353.41C43.8365 1354.61 42.2232 1355.54 40.4765 1356.2L38.1657 1357.07L37.08 1362.97C35.3671 1363.16 33.6377 1363.16 31.9247 1362.97L30.8391 1357.06L28.5464 1356.17C26.8179 1355.52 25.2106 1354.58 23.7732 1353.4L21.8688 1351.82L16.204 1353.84C15.1729 1352.45 14.3117 1350.95 13.6203 1349.37L18.1994 1345.44L17.8052 1343.01C17.6596 1342.11 17.5808 1341.17 17.5808 1340.25C17.5808 1339.32 17.6535 1338.39 17.8052 1337.48L18.1994 1335.05L13.6203 1331.13C14.3056 1329.54 15.1729 1328.04 16.204 1326.65L21.8688 1328.67L23.7732 1327.1C25.2106 1325.91 26.8179 1324.97 28.5464 1324.32L30.8451 1323.45L31.9308 1317.54C33.6351 1317.34 35.3757 1317.34 37.0861 1317.54L38.1717 1323.44L40.4825 1324.31C42.2232 1324.96 43.8426 1325.9 45.2922 1327.09L47.1966 1328.66L52.825 1326.66C53.8561 1328.05 54.7173 1329.55 55.4087 1331.13L50.8781 1335.02L51.2723 1337.44ZM34.5145 1328.94C28.6192 1328.94 23.8399 1333.73 23.8399 1339.64C23.8399 1345.55 28.6192 1350.34 34.5145 1350.34C40.4098 1350.34 45.189 1345.55 45.189 1339.64C45.189 1333.73 40.4098 1328.94 34.5145 1328.94ZM39.318 1344.45C38.688 1345.09 37.9393 1345.59 37.1149 1345.93C36.2905 1346.27 35.4068 1346.45 34.5145 1346.45C32.701 1346.45 30.9967 1345.74 29.7109 1344.45C29.0791 1343.82 28.5781 1343.07 28.2367 1342.24C27.8953 1341.42 27.7202 1340.53 27.7216 1339.64C27.7216 1337.82 28.4312 1336.11 29.7109 1334.82C30.9967 1333.53 32.701 1332.83 34.5145 1332.83C36.328 1332.83 38.0322 1333.53 39.318 1334.82C39.9499 1335.45 40.4509 1336.21 40.7923 1337.03C41.1337 1337.86 41.3088 1338.74 41.3074 1339.64C41.3074 1341.46 40.5978 1343.16 39.318 1344.45Z" fill="#989898"/>
<path d="M12.9891 26.8989H29.1285C30.6079 26.8989 31.8184 25.6884 31.8184 24.209V2.68989C31.8184 1.21045 30.6079 0 29.1285 0H12.9891C11.5097 0 10.2993 1.21045 10.2993 2.68989V24.209C10.2993 25.6884 11.5097 26.8989 12.9891 26.8989ZM12.9891 48.418H29.1285C30.6079 48.418 31.8184 47.2075 31.8184 45.7281V34.9685C31.8184 33.4891 30.6079 32.2786 29.1285 32.2786H12.9891C11.5097 32.2786 10.2993 33.4891 10.2993 34.9685V45.7281C10.2993 47.2075 11.5097 48.418 12.9891 48.418ZM39.888 48.418H56.0273C57.5068 48.418 58.7172 47.2075 58.7172 45.7281V24.209C58.7172 22.7295 57.5068 21.5191 56.0273 21.5191H39.888C38.4086 21.5191 37.1981 22.7295 37.1981 24.209V45.7281C37.1981 47.2075 38.4086 48.418 39.888 48.418ZM37.1981 2.68989V13.4494C37.1981 14.9289 38.4086 16.1393 39.888 16.1393H56.0273C57.5068 16.1393 58.7172 14.9289 58.7172 13.4494V2.68989C58.7172 1.21045 57.5068 0 56.0273 0H39.888C38.4086 0 37.1981 1.21045 37.1981 2.68989Z" fill="#989898"/>
<path d="M35.2718 263.075V274.871H30.4891V274.124C30.4891 255.872 30.4909 237.622 30.4779 219.37C30.4779 218.837 30.6043 218.567 31.1322 218.344C36.0414 216.279 40.932 214.171 45.8393 212.1C46.133 211.976 46.5679 211.963 46.8579 212.086C51.7857 214.166 56.6985 216.281 61.6226 218.368C62.0575 218.552 62.2546 218.749 62.2527 219.266C62.236 237.609 62.2397 255.954 62.2397 274.297C62.2397 274.459 62.2397 274.62 62.2397 274.838H41.5584V262.504C41.8985 262.462 42.2369 262.4 42.577 262.378C43.1402 262.343 43.5213 262.097 43.5436 261.504C43.5641 260.988 43.1161 260.655 42.4636 260.714C40.339 260.904 38.2162 261.114 36.0934 261.319C35.4242 261.384 34.7551 261.449 34.0878 261.523C33.571 261.581 33.2661 261.882 33.3052 262.4C33.3461 262.96 33.7309 263.194 34.2681 263.172C34.5878 263.159 34.9056 263.109 35.2737 263.07L35.2718 263.075ZM51.1537 242.145C51.1537 234.7 51.1537 227.255 51.1537 219.809C51.1537 219.554 51.228 219.249 51.1165 219.056C50.9529 218.772 50.6481 218.372 50.4083 218.374C50.1127 218.378 49.7558 218.696 49.5532 218.973C49.4157 219.16 49.4844 219.51 49.4844 219.787C49.4826 234.654 49.4826 249.521 49.4844 264.387C49.4844 265.423 49.7465 265.863 50.3506 265.847C50.9287 265.83 51.1537 265.428 51.1537 264.41C51.1537 256.987 51.1537 249.565 51.1537 242.145ZM53.4679 242.961C53.4679 248.664 53.4679 254.366 53.4679 260.069C53.4679 261.692 53.466 263.315 53.4716 264.938C53.4716 265.488 53.7523 265.835 54.3099 265.835C54.8304 265.835 55.0944 265.493 55.1353 264.986C55.1483 264.824 55.1408 264.663 55.1408 264.499C55.1408 250.126 55.1408 235.754 55.1408 221.382C55.1408 221.173 55.1613 220.96 55.1241 220.757C55.0368 220.287 54.73 219.937 54.2653 220.062C53.9605 220.144 53.6984 220.5 53.4939 220.789C53.3954 220.928 53.4716 221.194 53.4716 221.402C53.4716 228.588 53.4716 235.774 53.4716 242.961H53.4679ZM59.0964 243.792C59.0964 236.814 59.0964 229.836 59.0946 222.857C59.0946 222.088 58.8232 221.727 58.2785 221.72C57.7302 221.712 57.4439 222.084 57.4253 222.831C57.4235 222.924 57.4253 223.017 57.4253 223.11C57.4253 236.88 57.4253 250.651 57.4253 264.421C57.4253 265.417 57.6707 265.835 58.2544 265.845C58.8436 265.856 59.0964 265.438 59.0964 264.445C59.0964 257.56 59.0964 250.675 59.0964 243.79V243.792ZM43.1421 228.492C42.0305 228.863 41.0212 229.183 40.0323 229.555C39.8873 229.609 39.7609 229.902 39.7516 230.09C39.7181 230.784 39.7386 231.481 39.7386 232.176C39.7386 233.349 39.7386 234.523 39.7386 235.793C40.7702 235.503 41.6922 235.213 42.6291 234.992C43.0715 234.888 43.157 234.665 43.1495 234.261C43.1291 233.079 43.1421 231.899 43.1421 230.717C43.1421 230.008 43.1421 229.3 43.1421 228.492ZM43.1031 254.883V248.539C41.9673 248.71 40.8818 248.876 39.7813 249.041V255.192C40.9059 255.088 41.9803 254.987 43.1031 254.883ZM39.7386 245.492C40.839 245.288 41.8409 245.121 42.828 244.892C42.9692 244.859 43.1254 244.52 43.1291 244.321C43.1533 242.699 43.1421 241.074 43.1421 239.451C43.1421 239.165 43.1421 238.877 43.1421 238.514C42.1123 238.765 41.2219 239.007 40.3204 239.191C39.8761 239.282 39.7144 239.466 39.7274 239.931C39.7609 241.089 39.7386 242.251 39.7386 243.409C39.7386 244.072 39.7386 244.738 39.7386 245.492ZM43.1402 218.868C42.0064 219.352 41.0026 219.759 40.0267 220.222C39.8687 220.296 39.7553 220.623 39.7516 220.835C39.7237 221.945 39.7386 223.056 39.7386 224.166C39.7386 224.778 39.7386 225.389 39.7386 226.092C40.852 225.677 41.8465 225.317 42.8298 224.926C42.9637 224.872 43.1272 224.672 43.1272 224.538C43.1477 222.694 43.1402 220.848 43.1402 218.868ZM36.6585 246.08V240.1C35.638 240.355 34.6826 240.593 33.7364 240.829V246.63C34.7421 246.44 35.7086 246.258 36.6585 246.078V246.08ZM33.7271 237.483C34.5562 237.252 35.3053 237.011 36.0693 236.843C36.5656 236.734 36.7422 236.522 36.7291 235.999C36.692 234.471 36.718 232.94 36.7143 231.41C36.7143 231.192 36.6864 230.975 36.6659 230.679C35.6138 231.038 34.6621 231.362 33.7271 231.681V237.481V237.483ZM33.7309 255.749C34.2086 255.72 34.6231 255.705 35.0358 255.664C36.156 255.556 36.7161 254.942 36.7161 253.822C36.7161 252.418 36.7161 251.015 36.7161 249.526C35.6585 249.69 34.6937 249.838 33.7309 249.989V255.751V255.749ZM33.7104 228.332C34.6826 227.971 35.5748 227.663 36.4447 227.298C36.5879 227.239 36.7031 226.938 36.705 226.746C36.7254 225.192 36.7199 223.638 36.7124 222.084C36.7124 221.962 36.6511 221.839 36.6046 221.668C35.7068 222.054 34.8536 222.41 34.0115 222.794C33.8796 222.856 33.7234 223.047 33.7216 223.181C33.7011 224.865 33.7085 226.551 33.7085 228.332H33.7104Z" fill="#989898"/>
<path d="M28.8177 274.86H17.1722V265.159C17.4622 265.116 17.7707 265.06 18.0849 265.029C18.8172 264.954 19.1834 264.64 19.1054 264.086C19.0124 263.426 18.544 263.306 17.9752 263.361C15.8524 263.568 13.7296 263.772 11.6068 263.977C10.96 264.04 10.315 264.099 9.66994 264.172C9.14761 264.229 8.86507 264.534 8.89853 265.057C8.93385 265.59 9.29074 265.826 9.79448 265.822C10.1346 265.821 10.473 265.761 10.8522 265.726V274.849H5.73108V274.109C5.73108 261.424 5.73666 248.738 5.71436 236.053C5.71436 235.464 5.92069 235.215 6.42629 234.999C11.5418 232.83 16.648 230.635 21.7653 228.471C22.0442 228.354 22.4531 228.343 22.7319 228.456C24.5982 229.215 26.4384 230.034 28.301 230.804C28.7155 230.975 28.8252 231.211 28.8252 231.639C28.814 245.855 28.8159 260.069 28.8159 274.286C28.8159 274.464 28.8159 274.644 28.8159 274.86H28.8177ZM14.2148 248.887C15.0866 248.675 15.8952 248.493 16.6945 248.271C16.8246 248.236 16.9993 248.032 16.9993 247.903C17.0198 246.29 17.0123 244.675 17.0123 242.983C16.1126 243.26 15.2948 243.5 14.4899 243.777C14.3653 243.819 14.2278 244.041 14.2259 244.182C14.2073 245.73 14.2148 247.281 14.2148 248.887ZM16.9714 256.441V251.223C16.0253 251.424 15.1293 251.615 14.2575 251.799V256.826C15.1944 256.694 16.0829 256.567 16.9714 256.441ZM16.9882 235.07C16.1126 235.44 15.2873 235.782 14.4694 236.142C14.3653 236.189 14.2296 236.328 14.2296 236.425C14.2148 237.91 14.2185 239.395 14.2185 240.953C15.213 240.598 16.0996 240.28 16.9882 239.962V235.068V235.07ZM11.6812 252.32C10.8559 252.489 10.09 252.647 9.30561 252.809V257.51C10.1254 257.393 10.8931 257.283 11.6812 257.171V252.322V252.32ZM11.6868 244.661C10.9395 244.892 10.2741 245.082 9.62347 245.307C9.4822 245.357 9.28517 245.533 9.28145 245.656C9.25728 247.108 9.26658 248.558 9.26658 250.1C10.1328 249.89 10.9042 249.704 11.6868 249.515V244.661ZM11.7128 237.295C11.2183 237.503 10.8373 237.663 10.4562 237.823C9.65941 238.159 9.261 238.768 9.261 239.65C9.261 240.633 9.261 241.617 9.261 242.712C10.0714 242.423 10.7481 242.202 11.4042 241.933C11.5436 241.875 11.6961 241.643 11.6998 241.488C11.7221 240.124 11.7128 238.758 11.7128 237.295Z" fill="#989898"/>
<path d="M0.000488281 280.011V276.615H67.9555V280.011H0.000488281Z" fill="#989898"/>
<path d="M21.0172 893.408C20.5493 893.517 20.848 893.497 20.4597 893.547C18.7974 893.905 20.0317 894.224 21.0172 893.408ZM50.2531 894.075C50.3726 893.995 50.7906 893.587 49.4866 893.189C49.5663 893.597 49.2179 893.557 49.2179 893.786C50.1834 894.662 50.5816 896.185 51.8159 896.503C52.0549 895.409 50.721 894.871 50.2531 894.075ZM20.1312 893.089C20.2806 893.975 20.9475 892.153 20.9575 891.506C20.6986 891.656 20.4398 891.805 20.1711 891.924C20.7982 892.243 20.2507 892.581 19.5738 893.089C18.2001 894.801 20.8579 891.755 20.1312 893.089ZM37.1631 882C23.0877 882 11.68 893.408 11.68 907.483C11.68 921.549 23.0877 932.966 37.1631 932.966C51.2386 932.966 62.6463 921.549 62.6463 907.483C62.6463 893.408 51.2386 882 37.1631 882ZM37.84 890.541L37.9595 890.581C37.4817 891.198 40.4481 893 38.3178 893.149C36.327 893.716 39.154 892.631 37.6111 892.82C38.4273 891.686 36.9641 891.666 37.84 890.541ZM25.7554 892.173C25.0387 891.576 22.7891 892.99 23.5754 892.651C25.5265 891.885 23.7049 892.731 24.1628 893.647C23.7447 894.513 24.0234 892.791 22.9881 893.816C22.2416 893.985 20.41 895.677 20.6389 895.16C20.5792 895.966 18.4589 896.922 18.1702 898.265C17.4734 900.127 18.001 898.196 17.8716 897.469C16.8762 896.205 15.0645 899.609 15.602 900.953C16.5079 899.36 16.4382 900.784 15.7812 901.491C16.4481 902.715 15.174 904.308 16.4382 905.214C16.9956 905.343 18.1105 903.342 17.6227 905.423C17.9612 903.621 18.5585 905.851 19.524 905.353C19.5838 906.299 20.1711 905.861 20.3005 907.005C21.9131 906.886 23.3863 909.613 21.4651 910.131C21.7538 910.051 22.3212 910.559 22.9782 910.171C24.0931 911.057 27.0296 911.166 27.1092 913.356C25.0885 914.322 26.6115 916.97 24.8596 917.915C22.8488 917.617 24.1727 920.394 23.3266 920.075C23.665 922.076 21.2959 919.817 22.2117 920.922C23.894 921.957 21.4751 921.748 22.2316 922.504C21.3855 922.325 22.7592 924.077 22.9881 924.724C24.2026 926.695 21.9429 924.286 21.276 923.629C20.6389 922.355 19.1358 919.916 18.7177 917.915C18.4788 915.009 16.2291 913.058 15.7115 910.221C15.1939 908.638 17.135 906.099 16.0898 905.214C15.1839 904.507 15.5522 902.088 15.0147 900.814C16.3585 894.99 20.629 890.083 25.7554 887.176C25.2279 887.564 28.7716 886.171 28.3635 886.509C28.254 886.758 30.434 885.564 31.748 885.384C31.6086 885.404 28.3336 886.579 29.2395 886.42C27.8359 887.107 29.1001 886.718 29.7969 886.37C28.4033 887.395 27.3282 887.107 25.7455 888.012C24.1528 888.431 24.4813 890.083 23.3465 890.909C24.0134 891.029 25.6858 889.187 26.6613 888.54C28.901 887.455 25.5265 890.511 27.6567 889.197C26.94 889.864 27.0893 890.929 26.6513 891.228C26.4323 891.168 27.5174 891.745 25.7554 892.173ZM29.2395 887.594C29.0105 887.903 28.692 888.57 28.5029 888.162C28.244 888.291 28.1445 888.849 27.6567 888.401C27.9454 888.192 28.244 887.694 27.6766 888.002C27.9355 887.724 30.2449 886.937 30.1155 886.639C30.5236 886.38 30.4838 886.251 30.0159 886.41C29.777 886.33 30.5833 885.653 31.6584 885.564C31.8077 885.564 31.8674 885.663 31.5987 885.633C29.9761 886.131 30.6729 885.992 31.7679 885.633C31.3498 885.872 31.0611 885.942 30.9914 886.051C32.0864 885.653 30.9317 886.34 31.1806 886.29C30.872 886.45 31.2303 886.499 30.6331 886.728C30.7426 886.639 29.6576 887.375 30.3046 887.156C29.6775 887.754 29.3987 887.764 29.2395 887.594ZM30.1951 889.018C30.215 888.062 31.5887 887.455 31.4195 887.405C33.1117 886.609 30.8322 887.435 32.1661 886.718C32.6638 886.669 33.7189 885.076 35.1822 884.976C36.7948 884.489 36.0483 885.006 37.2428 884.548L37.0039 884.747C36.7948 884.777 37.0536 885.146 36.2971 885.703C36.2175 886.569 34.8537 886.171 35.5306 887.097C35.0926 886.47 34.4356 887.077 35.2619 887.136C34.3759 887.813 32.3154 887.933 31.3299 889.058C30.6928 889.973 30.1055 889.685 30.1951 889.018ZM37.2726 892.203C36.5957 893.836 35.9388 891.964 37.1333 891.666C37.4319 891.825 37.5514 891.875 37.2726 892.203ZM34.7243 888.938C34.5252 888.202 34.6845 888.59 35.8691 888.241C36.6853 888.829 35.1424 889.217 34.7243 888.938ZM53.2593 918.154C52.3236 916.542 54.3941 915.048 55.0909 913.695C55.0013 915.277 54.8023 916.84 53.2593 918.154ZM56.7832 899.729C55.7678 899.808 54.852 900.047 53.9362 899.47C51.8259 897.16 54.3244 902.078 55.0213 900.067C57.5297 901.023 54.9814 905.144 53.3987 904.716C52.5128 902.805 51.4178 900.704 49.4866 899.769C50.9698 901.411 51.7065 903.432 53.2991 904.915C53.4086 906.985 55.509 904.158 55.3796 905.761C55.5787 908.518 52.2639 910.171 52.8412 912.938C54.0756 915.457 50.4622 915.914 50.8703 918.174C49.417 919.797 47.8641 921.987 45.256 921.638C45.256 920.265 44.5592 919.1 44.4 917.686C42.9864 915.895 45.8931 913.973 44.0914 912.102C42.0109 911.634 44.5194 908.767 42.3792 909.036C41.0951 907.752 39.2137 908.996 37.3722 909.006C35.0628 909.225 32.6837 906.169 33.709 904.009C32.8927 901.759 36.2971 901.102 36.3867 899.121C38.0192 897.758 40.3386 897.927 42.5484 897.608C42.3892 899.191 44.0615 899.201 45.3257 899.729C46.0325 898.017 48.2324 900.007 49.7355 898.922C50.2531 896.394 48.2722 897.917 47.1374 897.111C45.7637 895.1 50.0739 896.075 49.626 895.02C47.9537 895.01 48.8993 892.96 47.7148 894.104C48.7799 894.294 47.5256 895.13 47.5555 894.174C45.9429 893.706 47.4958 896.006 46.6795 896.225C45.4352 895.707 46.0225 896.812 46.1519 896.981C45.6144 898.146 44.9574 895.269 43.4344 895.349C41.9213 893.965 42.8371 895.976 44.1511 896.304C43.8724 896.384 44.3104 897.529 43.962 897.041C42.8769 895.548 40.8164 894.552 39.592 896.384C39.4626 898.096 35.9786 898.584 36.536 896.583C35.7198 894.513 39.0644 896.523 38.7558 894.871C36.6057 893.448 39.3431 893.905 40.0698 892.572C41.7222 892.621 40.1395 891.218 40.9159 890.81C40.8363 892.333 42.1801 892.044 43.2453 891.755C42.9864 890.879 43.8823 890.909 43.3348 890.182C45.8035 889.197 41.4535 890.64 42.3294 888.48C41.2643 887.744 41.8815 890.103 42.3294 890.352C42.3593 891.078 41.7421 891.974 40.896 890.451C39.6617 891.258 39.7911 889.635 39.7115 889.804C39.5721 889.177 40.6472 889.147 40.6571 888.052C40.5675 887.355 40.5874 886.987 41.0852 886.947C41.125 887.047 43.1258 887.077 43.8326 887.903C41.9014 887.515 43.5439 888.221 44.4099 888.62C43.4842 887.893 44.7782 888.62 44.0217 887.793C44.3203 887.853 43.1955 886.659 44.3502 887.704C43.7231 886.957 45.5746 887.176 44.4796 886.619C46.0822 887.067 45.1366 886.659 44.1909 886.251C41.5829 884.698 48.7998 888.351 45.8533 886.728C47.7347 887.136 41.8317 885.275 44.5194 886.091C43.4941 885.643 44.4895 885.892 45.4153 886.181C43.7529 885.663 41.2643 884.698 41.3639 884.658C41.9412 884.698 42.5086 884.827 43.0561 884.986C44.7583 885.494 42.5684 884.867 43.0362 884.877C48.8894 886.38 54.0159 890.302 57.1316 895.428C57.8582 896.195 59.8392 901.262 58.8039 899.012C59.2718 900.804 59.3414 902.735 59.5903 904.567C59.0727 903.989 58.4953 901.859 57.9976 900.674C57.7886 901.132 57.5497 900.027 56.7832 899.729Z" fill="#FDFDFD"/>
</svg>
