<svg width="80" height="16" viewBox="0 0 80 16" fill="none" xmlns="http://www.w3.org/2000/svg">
<path d="M7.99997 0L9.79608 5.52784H15.6084L10.9061 8.94424L12.7022 14.4721L7.99997 11.0557L3.29771 14.4721L5.09381 8.94424L0.391546 5.52784H6.20387L7.99997 0Z" fill="#FFB400"/>
<path d="M24 0L25.7961 5.52784H31.6084L26.9061 8.94424L28.7022 14.4721L24 11.0557L19.2977 14.4721L21.0938 8.94424L16.3915 5.52784H22.2039L24 0Z" fill="#FFB400"/>
<path d="M39.9997 0L41.7958 5.52784H47.6082L42.9059 8.94424L44.702 14.4721L39.9997 11.0557L35.2975 14.4721L37.0936 8.94424L32.3913 5.52784H38.2036L39.9997 0Z" fill="#FFB400"/>
<path d="M55.9997 0L57.7958 5.52784H63.6082L58.9059 8.94424L60.702 14.4721L55.9997 11.0557L51.2975 14.4721L53.0936 8.94424L48.3913 5.52784H54.2036L55.9997 0Z" fill="#FFB400"/>
<path d="M71.9997 0L73.7958 5.52784H79.6082L74.9059 8.94424L76.702 14.4721L71.9997 11.0557L67.2975 14.4721L69.0936 8.94424L64.3913 5.52784H70.2036L71.9997 0Z" fill="#FFB400"/>
</svg>
