<svg width="33" height="33" viewBox="0 0 33 33" fill="none" xmlns="http://www.w3.org/2000/svg">
<path d="M18.1176 16.4951C18.1176 16.815 18.0228 17.1278 17.845 17.3939C17.6673 17.6599 17.4146 17.8673 17.119 17.9897C16.8235 18.1122 16.4982 18.1442 16.1844 18.0818C15.8706 18.0194 15.5824 17.8653 15.3562 17.639C15.1299 17.4128 14.9759 17.1245 14.9134 16.8107C14.851 16.4969 14.8831 16.1716 15.0055 15.876C15.1279 15.5804 15.3353 15.3277 15.6013 15.1499C15.8673 14.9722 16.1801 14.8773 16.5 14.8773C16.929 14.8773 17.3405 15.0477 17.6439 15.3511C17.9472 15.6545 18.1176 16.066 18.1176 16.4951ZM9.38235 14.8773C9.06241 14.8773 8.74966 14.9722 8.48364 15.1499C8.21762 15.3277 8.01028 15.5804 7.88784 15.876C7.76541 16.1716 7.73337 16.4969 7.79579 16.8107C7.85821 17.1245 8.01227 17.4128 8.2385 17.639C8.46474 17.8653 8.75297 18.0194 9.06677 18.0818C9.38056 18.1442 9.70581 18.1122 10.0014 17.9897C10.297 17.8673 10.5496 17.6599 10.7274 17.3939C10.9051 17.1278 11 16.815 11 16.4951C11 16.066 10.8296 15.6545 10.5262 15.3511C10.2228 15.0477 9.81138 14.8773 9.38235 14.8773ZM23.6176 14.8773C23.2977 14.8773 22.985 14.9722 22.7189 15.1499C22.4529 15.3277 22.2456 15.5804 22.1231 15.876C22.0007 16.1716 21.9687 16.4969 22.0311 16.8107C22.0935 17.1245 22.2476 17.4128 22.4738 17.639C22.7 17.8653 22.9883 18.0194 23.3021 18.0818C23.6159 18.1442 23.9411 18.1122 24.2367 17.9897C24.5323 17.8673 24.7849 17.6599 24.9627 17.3939C25.1404 17.1278 25.2353 16.815 25.2353 16.4951C25.2353 16.066 25.0649 15.6545 24.7615 15.3511C24.4581 15.0477 24.0467 14.8773 23.6176 14.8773ZM33 16.4951C33.0006 19.3557 32.2576 22.1673 30.8439 24.6541C29.4303 27.1409 27.3945 29.2175 24.9363 30.68C22.4781 32.1426 19.6819 32.941 16.8221 32.9969C13.9623 33.0527 11.1371 32.3641 8.62368 30.9986L2.98294 32.8784C2.58391 33.0115 2.1557 33.0308 1.74631 32.9342C1.33692 32.8376 0.962523 32.6288 0.665087 32.3314C0.367652 32.0339 0.158931 31.6595 0.062317 31.2501C-0.0342968 30.8406 -0.0149849 30.4124 0.118088 30.0133L1.99779 24.3721C0.799541 22.1638 0.121315 19.7111 0.01483 17.2009C-0.0916546 14.6907 0.376415 12.1893 1.38335 9.8875C2.39028 7.58568 3.90949 5.5442 5.82512 3.91873C7.74076 2.29327 10.0022 1.12673 12.4371 0.508076C14.872 -0.110579 17.416 -0.165016 19.8751 0.348917C22.3343 0.862849 24.6436 1.93158 26.627 3.47362C28.6104 5.01565 30.2155 6.99027 31.32 9.24691C32.4244 11.5036 32.999 13.9826 33 16.4951ZM31.0588 16.4951C31.0583 14.2616 30.544 12.0581 29.5557 10.0552C28.5674 8.05235 27.1316 6.30368 25.3594 4.94455C23.5872 3.58542 21.526 2.65225 19.3355 2.21725C17.145 1.78225 14.8837 1.85708 12.7267 2.43594C10.5698 3.0148 8.57484 4.08218 6.89634 5.5555C5.21784 7.02882 3.90076 8.86857 3.047 10.9324C2.19324 12.9963 1.82569 15.2289 1.97279 17.4575C2.11989 19.6862 2.77769 21.8511 3.89529 23.7848C3.96433 23.9039 4.00724 24.0364 4.02118 24.1733C4.03513 24.3103 4.01979 24.4486 3.97618 24.5792L1.96059 30.6265C1.94158 30.6835 1.93882 30.7447 1.95262 30.8032C1.96642 30.8616 1.99624 30.9151 2.03873 30.9576C2.08122 31.0001 2.13471 31.0299 2.19319 31.0437C2.25168 31.0575 2.31285 31.0548 2.36985 31.0358L8.41177 29.02C8.51098 28.9874 8.61468 28.9705 8.71912 28.9699C8.88949 28.9708 9.0567 29.016 9.20441 29.1009C11.4178 30.3827 13.9297 31.0587 16.4874 31.0609C19.0451 31.0631 21.5582 30.3915 23.7738 29.1135C25.9894 27.8355 27.8292 25.9964 29.1081 23.7812C30.387 21.566 31.0598 19.053 31.0588 16.4951Z" fill="#222222"/>
</svg>
