<svg width="41" height="57" viewBox="0 0 41 57" fill="none" xmlns="http://www.w3.org/2000/svg">
<path d="M5.36424 0V2.87593H11.8018V0H5.36424ZM5.36424 5.0774V16.1722C2.14548 18.2932 0 20.9443 0 23.0652V54.9577C0 54.9577 -0.000370578 57 2.14547 57H15.0115C17.1661 57 17.166 54.879 17.166 54.879V23.0652C17.166 20.9442 15.0204 18.2931 11.8018 16.1722V5.0774H5.36424ZM2.0242 27.3991H15.1418V47.2146H2.0242V27.3991ZM26.0955 27.7661L25.8417 28.5188C24.7931 31.6285 24.2586 35.6671 25.0704 39.1446C25.4763 40.8833 26.2372 42.5022 27.5263 43.7037C28.5918 44.6967 30.0144 45.359 31.7245 45.5595V54.6893C29.3238 55.2014 26.1557 57 26.1557 57H39.5208C39.5208 57 36.3526 55.2013 33.952 54.6894V45.5595C35.6622 45.359 37.0846 44.6967 38.1501 43.7037C39.4393 42.5023 40.2001 40.8833 40.6061 39.1444C41.4179 35.667 40.8834 31.6285 39.8348 28.5188L39.5811 27.7661H26.0954H26.0955ZM4.25172 29.6009V45.0129H12.9143V29.6009H4.25172ZM27.7277 29.9678H37.9488C38.2754 31.1006 38.5216 32.361 38.6517 33.6373H27.0248C27.1548 32.361 27.4011 31.1006 27.7277 29.9678ZM26.925 35.8391H38.7514C38.7371 36.8225 38.6392 37.7773 38.4355 38.6495C38.0989 40.0909 37.4986 41.2852 36.6221 42.1021C35.7457 42.9189 34.5863 43.4227 32.8382 43.4227C31.0903 43.4227 29.9308 42.9188 29.0544 42.1021C28.1779 41.2852 27.5775 40.0909 27.241 38.6495C27.0373 37.7773 26.9394 36.8224 26.925 35.8391Z" fill="black"/>
</svg>
