<svg width="32" height="35" viewBox="0 0 32 35" fill="none" xmlns="http://www.w3.org/2000/svg">
<path d="M18.8833 32.354C18.5907 32.8546 18.1702 33.2701 17.6641 33.559C17.1581 33.8479 16.5842 34 16 34C15.4158 34 14.8419 33.8479 14.3359 33.559C13.8298 33.2701 13.4093 32.8546 13.1167 32.354M26 11.5613C26 8.76094 24.9467 6.0744 23.0717 4.09414C21.195 2.11389 18.65 1 16 1C13.3483 1 10.805 2.11224 8.92833 4.09414C7.05333 6.0744 6 8.76094 6 11.5613C6 23.8835 1 27.4034 1 27.4034H31C31 27.4034 26 23.8835 26 11.5613Z" stroke="#222222" stroke-width="1.5" stroke-linecap="round" stroke-linejoin="round"/>
</svg>
