<svg width="56" height="55" viewBox="0 0 56 55" fill="none" xmlns="http://www.w3.org/2000/svg">
<path d="M55.0029 38.7793C54.8267 39.2992 54.6892 39.8363 54.4672 40.3362C54.0332 41.313 53.3214 42.055 52.3975 42.5935C51.8461 42.9158 51.4135 42.8413 51.15 42.3858C50.8936 41.9432 51.0254 41.5608 51.5482 41.2314C53.307 40.1185 53.8083 38.2823 52.9934 36.3816C52.5178 35.2716 52.1755 34.0986 51.8461 32.9341C51.1128 30.346 50.1861 27.8366 48.9615 25.4418C48.0247 23.6113 47.0737 21.7895 46.1012 19.9776C45.3464 18.5725 43.3927 18.5324 42.5849 19.8931C42.2855 20.3958 42.2111 20.9072 42.5276 21.4629C42.9788 22.2549 43.3855 23.0714 43.8023 23.882C44.0816 24.4263 43.9771 24.8374 43.5202 25.0723C43.069 25.3043 42.6565 25.1525 42.3758 24.6283C41.9618 23.8563 41.5608 23.0771 41.1555 22.3008C40.7616 21.5488 40.1443 21.2237 39.3035 21.3898C38.4871 21.5503 37.887 22.0186 37.6936 22.8508C37.6234 23.1516 37.6664 23.5326 37.7953 23.8133C38.1749 24.6411 38.626 25.4361 39.0457 26.2453C39.3723 26.8755 39.3021 27.2852 38.8309 27.5329C38.3353 27.7936 37.9486 27.616 37.6063 26.9672C37.2396 26.2711 36.8772 25.5736 36.5134 24.876C36.0794 24.0482 35.581 23.7431 34.7202 23.8391C33.8794 23.9322 33.3065 24.4062 33.0029 25.1883C32.8124 25.681 32.8611 26.1694 33.1117 26.6392C33.4741 27.3167 33.8279 27.9999 34.1831 28.6816C34.554 29.3921 34.5039 29.796 34.0112 30.0624C33.5099 30.3331 33.1346 30.1483 32.7665 29.4465C30.5837 25.2828 28.4023 21.1177 26.221 16.9526C26.188 16.8896 26.1536 16.8266 26.1207 16.7635C25.5234 15.6607 24.634 15.3012 23.6443 15.7609C22.6044 16.2436 22.1203 17.3909 22.5171 18.4522C22.5987 18.6685 22.7076 18.8762 22.8164 19.081C25.2542 23.7374 27.6934 28.3923 30.1326 33.0473C30.1741 33.126 30.2142 33.2063 30.2586 33.2836C30.4792 33.6775 30.5365 34.0685 30.1798 34.4122C29.8432 34.7359 29.4708 34.6729 29.0913 34.4695C28.0342 33.9052 26.9744 33.3495 25.9145 32.7895C25.5979 32.6233 25.2828 32.4543 24.9634 32.2939C23.8749 31.7482 22.8307 32.0776 22.2893 33.1332C21.7365 34.2117 22.073 35.3146 23.1573 35.856C26.052 37.2997 28.9552 38.7277 31.8542 40.1629C32.9441 40.7014 34.0284 41.25 35.1241 41.7757C36.2599 42.3199 37.1164 43.1363 37.7194 44.2464C38.7779 46.1971 40.8189 46.8216 42.7997 45.8119C44.2335 45.0814 45.6529 44.3223 47.078 43.5775C47.2212 43.503 47.3616 43.4228 47.5091 43.3598C47.9445 43.175 48.2826 43.3154 48.5146 43.705C48.7509 44.1003 48.6592 44.5486 48.241 44.7691C46.4549 45.713 44.7018 46.7371 42.8513 47.5335C40.488 48.5518 37.6693 47.4833 36.4275 45.2189C35.8961 44.2478 35.1771 43.5445 34.173 43.0962C33.3953 42.7482 32.6376 42.3514 31.7625 41.9232C31.7625 42.2211 31.7625 42.423 31.7625 42.6264C31.7625 45.4194 31.7052 48.2124 31.7811 51.0039C31.8341 52.9762 31.1652 54.3669 29.2188 55C20.3385 55 11.4583 55 2.57812 55C1.24466 54.6147 0.382422 53.7582 0 52.4219C0.00286458 35.8073 0.00286458 19.1927 0.00286458 2.57812C0.386719 1.24323 1.24466 0.382422 2.58099 0C3.58359 0 4.5862 0 5.5888 0C5.98268 0.254948 6.22331 0.578646 6.05859 1.07565C5.89674 1.56263 5.50716 1.62135 5.06602 1.61419C4.42148 1.60417 3.77695 1.59844 3.13385 1.61849C2.37904 1.64141 1.72734 2.13125 1.66146 2.85456C1.58411 3.7168 1.64284 4.59049 1.64284 5.45703C11.1561 5.45703 20.6279 5.45703 30.1512 5.45703C30.1512 4.79961 30.1526 4.17656 30.1512 3.55352C30.1483 2.15273 29.604 1.61276 28.1975 1.61276C22.169 1.61276 16.1405 1.61133 10.1105 1.61563C9.67656 1.61563 9.27839 1.57982 9.11224 1.08854C8.94753 0.594401 9.18242 0.266406 9.56341 0C16.1161 0 22.6689 0 29.2216 0C31.171 0.630208 31.8026 2.02526 31.7854 3.99466C31.7296 10.3827 31.7639 16.7721 31.7639 23.1602C31.7639 23.3635 31.7639 23.5655 31.7639 23.9207C32.9542 22.3681 34.3893 21.947 36.0766 22.3538C37.1594 20.1251 38.1434 19.6081 40.8089 19.863C40.8776 19.7112 40.9464 19.5494 41.0208 19.3904C41.6367 18.0813 42.7095 17.4152 44.1117 17.325C45.501 17.2362 46.7113 17.7375 47.3688 18.9879C48.897 21.8969 50.4983 24.7858 51.7501 27.8165C53.0335 30.9232 53.9329 34.1874 55.0014 37.3828C55.0029 37.8483 55.0029 38.3138 55.0029 38.7793ZM30.1283 7.14427C20.5949 7.14427 11.1189 7.14427 1.65859 7.14427C1.65859 19.5622 1.65859 31.9387 1.65859 44.3122C11.1647 44.3122 20.6264 44.3122 30.1497 44.3122C30.1497 43.2824 30.1612 42.2855 30.134 41.2887C30.1311 41.1698 29.9292 41.0165 29.7859 40.9464C27.2494 39.7089 24.707 38.4799 22.1217 37.2296C22.1747 37.2052 22.1561 37.2095 22.1432 37.221C22.0229 37.3284 21.9055 37.4372 21.7866 37.5447C20.2497 38.9483 18.4422 39.7504 16.3654 39.8406C10.7107 40.0855 6.44245 35.2816 7.31471 29.6928C8.03516 25.0794 12.6815 21.7708 17.2863 22.5915C21.1421 23.279 23.9608 26.2167 24.5051 30.0996C24.5251 30.2428 24.634 30.4333 24.7543 30.4935C25.5206 30.873 26.3012 31.2225 27.0775 31.5835C27.2408 31.6594 27.4026 31.7367 27.6805 31.8671C27.5244 31.5548 27.4384 31.3786 27.3482 31.2053C25.4733 27.626 23.5898 24.051 21.7322 20.4646C21.5302 20.075 21.3096 19.9418 20.8757 19.9432C15.8283 19.959 10.7794 19.9547 5.7306 19.9518C4.32552 19.9518 3.575 19.2013 3.57214 17.7977C3.56784 16.0789 3.56927 14.3602 3.57214 12.6414C3.57357 11.1547 4.29831 10.4271 5.77357 10.4271C10.7866 10.4271 15.7982 10.4271 20.8112 10.4271C22.6016 10.4271 24.3919 10.4214 26.1809 10.4285C27.3883 10.4328 28.1503 11.1977 28.1689 12.4094C28.176 12.8749 28.1689 13.3404 28.1703 13.8059C28.1746 14.9331 27.9784 16.1104 28.2419 17.1746C28.5112 18.2546 29.2331 19.2214 29.7602 20.2368C29.8504 20.4102 29.9507 20.5777 30.0466 20.7482C30.0738 20.7324 30.101 20.7152 30.1283 20.6995C30.1283 16.1964 30.1283 11.6918 30.1283 7.14427ZM30.1182 45.9952C20.5978 45.9952 11.1246 45.9952 1.61563 45.9952C1.61563 47.9273 1.6099 49.8208 1.61849 51.7143C1.62279 52.7613 2.2444 53.3858 3.29284 53.3872C11.6846 53.3915 20.0764 53.3915 28.4682 53.3872C29.5124 53.3872 30.1369 52.7785 30.1483 51.7172C30.1684 49.8924 30.154 48.0677 30.1512 46.2415C30.1497 46.1714 30.1326 46.1026 30.1182 45.9952ZM16.351 38.2465C17.696 38.2293 19.2887 37.612 20.6594 36.3988C20.9172 36.1711 20.9501 36.0078 20.7854 35.6855C19.843 33.8436 20.5792 31.6493 22.454 30.7914C22.8938 30.5909 22.931 30.3589 22.8622 29.9764C22.1862 26.2553 18.8103 23.7316 15.0663 24.1513C11.3251 24.5695 8.62669 27.8094 8.81862 31.6551C8.99622 35.2816 12.1645 38.2436 16.351 38.2465ZM20.7095 18.3419C20.2039 15.3227 23.4824 12.6944 26.559 14.6882C26.559 13.9777 26.5332 13.3046 26.5676 12.6342C26.5919 12.1501 26.4 12.0298 25.9431 12.0298C19.2342 12.0413 12.5254 12.0427 5.81654 12.0284C5.3138 12.027 5.16771 12.1988 5.17344 12.6829C5.19492 14.31 5.18203 15.9385 5.18203 17.5671C5.18203 18.3405 5.18346 18.3405 5.95833 18.3405C10.6806 18.3405 15.4043 18.3405 20.1266 18.3405C20.3056 18.3419 20.4818 18.3419 20.7095 18.3419Z" fill="#989898"/>
<path d="M15.9013 51.8203C15.1136 51.8203 14.3258 51.839 13.538 51.816C12.2375 51.7774 11.4211 50.9438 11.4154 49.6805C11.4096 48.4215 12.2303 47.5449 13.5194 47.5192C15.0935 47.4862 16.6705 47.4862 18.246 47.5206C19.5408 47.5478 20.3328 48.4086 20.3257 49.6891C20.3185 50.9681 19.5236 51.7802 18.2102 51.8189C17.441 51.839 16.6705 51.8218 15.9013 51.8203ZM15.8469 49.119C15.1322 49.119 14.4175 49.1176 13.7042 49.119C13.3361 49.1205 13.0066 49.1906 12.9909 49.6504C12.9766 50.1116 13.2874 50.2104 13.6669 50.2104C15.1494 50.2104 16.6318 50.209 18.1142 50.2104C18.478 50.2104 18.7745 50.0973 18.7802 49.6877C18.7874 49.2522 18.4852 49.1176 18.097 49.1176C17.3479 49.119 16.5974 49.119 15.8469 49.119Z" fill="#989898"/>
<path d="M14.184 32.98C14.5277 32.6162 14.8128 32.2982 15.115 31.996C16.5043 30.6009 17.8965 29.2088 19.2915 27.8209C19.7198 27.3955 20.1552 27.3582 20.5133 27.6977C20.8914 28.0543 20.8671 28.5127 20.4231 28.9581C18.5783 30.8086 16.732 32.6577 14.8801 34.5011C14.3573 35.021 13.9777 35.0181 13.4535 34.5025C12.7388 33.7992 12.0298 33.0917 11.3266 32.377C10.8854 31.9287 10.8582 31.5362 11.2177 31.1595C11.5758 30.7828 12.0298 30.8101 12.4796 31.2555C13.0253 31.7955 13.5595 32.3483 14.184 32.98Z" fill="#989898"/>
</svg>
