<svg width="60" height="60" viewBox="0 0 60 60" fill="none" xmlns="http://www.w3.org/2000/svg">
<path d="M22.6957 47.0435V31.2174M22.6957 31.2174V14.1739H33.6522C34.7713 14.1739 35.8794 14.3943 36.9133 14.8226C37.9472 15.2508 38.8866 15.8786 39.678 16.6699C40.4693 17.4612 41.097 18.4006 41.5252 19.4345C41.9535 20.4684 42.1739 21.5766 42.1739 22.6957C42.1739 23.8147 41.9535 24.9229 41.5252 25.9568C41.097 26.9907 40.4693 27.9301 39.678 28.7214C38.8866 29.5127 37.9472 30.1405 36.9133 30.5687C35.8794 30.997 34.7713 31.2174 33.6522 31.2174H22.6957ZM30 58C14.5367 58 2 45.4633 2 30C2 14.5367 14.5367 2 30 2C45.4633 2 58 14.5367 58 30C58 45.4633 45.4633 58 30 58Z" stroke="black" stroke-width="3"/>
</svg>
