<svg width="33" height="33" viewBox="0 0 33 33" fill="none" xmlns="http://www.w3.org/2000/svg">
<path d="M16.5 0C7.392 0 0 7.392 0 16.5C0 25.608 7.392 33 16.5 33C25.608 33 33 25.608 33 16.5C33 7.392 25.608 0 16.5 0ZM16.5 6.6C19.6845 6.6 22.275 9.1905 22.275 12.375C22.275 15.5595 19.6845 18.15 16.5 18.15C13.3155 18.15 10.725 15.5595 10.725 12.375C10.725 9.1905 13.3155 6.6 16.5 6.6ZM16.5 29.7C13.1505 29.7 9.1905 28.347 6.369 24.948C9.25915 22.6804 12.8265 21.448 16.5 21.448C20.1735 21.448 23.7409 22.6804 26.631 24.948C23.8095 28.347 19.8495 29.7 16.5 29.7Z" fill="#222222"/>
</svg>
