<svg width="54" height="39" viewBox="0 0 54 39" fill="none" xmlns="http://www.w3.org/2000/svg">
<path d="M41.7273 0C37.53 0 34.9773 0.804375 33.5045 1.48688C31.6145 0.560625 29.4545 0 27 0C24.5455 0 22.3855 0.560625 20.4955 1.48688C19.0227 0.804375 16.47 0 12.2727 0C4.90909 0 0 19.5 0 24.375C0 26.3981 3.24 28.2506 7.70727 29.0062C9.27818 34.4662 16.6909 38.6344 25.7727 39V28.5675C24.3245 27.6656 22.0909 26.0325 22.0909 24.375C22.0909 21.9375 27 21.9375 27 21.9375C27 21.9375 31.9091 21.9375 31.9091 24.375C31.9091 26.0325 29.6755 27.6656 28.2273 28.5675V39C37.3091 38.6344 44.7218 34.4662 46.2927 29.0062C50.76 28.2506 54 26.3981 54 24.375C54 19.5 49.0909 0 41.7273 0ZM7.73182 24.0581C6.50455 23.7656 5.54727 23.4244 4.90909 23.1562C5.52273 16.4044 10.3091 5.85 12.3955 4.875C13.7209 4.875 14.7273 5.02125 15.6355 5.14313C10.4809 10.7738 8.44364 19.5975 7.73182 24.0581ZM19.6364 19.5C18.9854 19.5 18.3611 19.2432 17.9007 18.7861C17.4404 18.329 17.1818 17.709 17.1818 17.0625C17.1818 15.7463 18.2864 14.625 19.6364 14.625C20.2873 14.625 20.9117 14.8818 21.372 15.3389C21.8323 15.796 22.0909 16.416 22.0909 17.0625C22.0909 18.4275 20.9864 19.5 19.6364 19.5ZM34.3636 19.5C33.7127 19.5 33.0883 19.2432 32.628 18.7861C32.1677 18.329 31.9091 17.709 31.9091 17.0625C31.9091 15.7463 33.0136 14.625 34.3636 14.625C35.0146 14.625 35.6389 14.8818 36.0993 15.3389C36.5596 15.796 36.8182 16.416 36.8182 17.0625C36.8182 18.4275 35.7136 19.5 34.3636 19.5ZM46.2682 24.0581C45.5564 19.5975 43.5191 10.7738 38.3645 5.14313C39.2727 5.02125 40.2791 4.875 41.6045 4.875C43.6909 5.85 48.4773 16.4044 49.0909 23.1562C48.4773 23.4244 47.52 23.7656 46.2682 24.0581Z" fill="black"/>
</svg>
